<svg xmlns="http://www.w3.org/2000/svg" xmlns:xlink="http://www.w3.org/1999/xlink" x="0" y="0" version="1.1" viewBox="0 0 193 236" xml:space="preserve"><image width="191" height="248" opacity=".3" overflow="visible" transform="translate(5 -3.93)" xlink:href="309711D9DA5162D9.png"/><linearGradient id="a" x1="98.418" x2="98.418" y1=".125" y2="235.555" gradientUnits="userSpaceOnUse"><stop offset="0" stop-color="#39e7e0"/><stop offset=".481" stop-color="#39e7e0"/><stop offset="1" stop-color="#39f"/><stop offset="1" stop-color="#39f"/><stop offset="1" stop-color="#39f"/></linearGradient><path d="M187.3 80.7c0-.2 0-.3-.1-.5 0-.3-.1-.5-.1-.8-3.8-33.7-26.4-61.8-57-73.5-.1 0-.1-.1-.2-.1-.3-.1-.5-.2-.8-.3-.2-.1-.5-.2-.7-.3-.1 0-.2-.1-.2-.1-4.4-1.6-9-2.8-13.7-3.6C109.3.6 104 .1 98.6.1c-5 0-9.8.4-14.6 1.2-4.9.8-9.7 2-14.3 3.6-28.3 10.5-53.8 38.7-59.1 67.6-3.7 19.9-.7 39 7.1 55.3l.1.2c.2.5.5 1 .7 1.5h.1l1.3 2.4s-.1 0-.1.1c.8 1.5 1.7 3 2.6 4.4l.1.2.1.1c1.3 2.1 2.7 4.2 4.2 6.2l50.1 66.7 5 6.8c.1.1.1.2.2.3l12.8 17.1c.9 1.2 2.2 1.8 3.5 1.8 1.3 0 2.6-.6 3.5-1.8l66.7-89c12-15.2 19.1-34.4 19.1-55.2.1-3-.1-6-.4-8.9z" fill="url(#a)"/><path d="M73 119.9c-1.2-1.1-2.2-2-3-2.9-4.3-4.7-6.5-10.3-6.5-16.6V70.3c0-2.4.8-3.2 3.2-3.2h60.8c2.5 0 3.2.7 3.2 3.3v3.9h7.3c3.8.1 6.9 3 7 6.8.1 3.8-.2 7.7-1.3 11.4-1.8 5.9-5.8 9.2-11.8 10.3-.3.1-.7.1-1 .2-.1 0-.2.1-.3.1-.4 3.2-1.3 6.3-2.9 9.2-1.6 2.8-3.7 5.2-6.2 7.6h15.8c2.3 0 3.3 1.1 3 3.3-.8 6-4.6 9.4-9.7 11.9-2.3 1.1-4.8 1.6-7.3 1.6H71c-5.8 0-10.6-2.5-14.3-6.9-1.6-1.9-2.5-4.2-2.7-6.7-.2-2.1.8-3.2 2.9-3.2H73zm52.8-48H68.4c0 .3-.1.6-.1.9v9.3c0 6.8-.2 13.5.2 20.3.4 8.9 8 16.7 16.9 17.2 7.4.4 14.9.5 22.3.1 10.6-.5 18-8.5 18.1-19.1.1-9.2 0-18.5 0-27.7.1-.3.1-.6 0-1zm9 52.8H59.6c.6 1.7 1.6 3 3 4.1 2.6 2 5.6 3.1 9 3.1h51.3c1.4 0 2.8-.2 4-.6 3.4-1 6.3-2.8 7.9-6.6zm-4-26.7c3.7-.4 6.3-2.1 7.8-5.4 1.6-3.6 1.7-7.4 1.7-11.3 0-1.1-.6-2.1-1.8-2.2-2.6-.1-5.2 0-7.7 0V98zm-26.5-68.5c-.1 5.7-2.5 10.4-6.7 14.2-1.1 1-2.2 2.1-3.3 3-2.9 2.6-4.3 5.9-4.3 9.7 0 .5 0 1.1-.1 1.6-.3 1.2-1.5 1.9-2.6 1.8-1.2-.2-2-1.1-2.1-2.5 0-5.2 1.7-9.8 5.4-13.5 1.5-1.5 3-2.9 4.5-4.3 3-2.6 4.2-6 4.3-9.9v-1.1c.1-1.4 1.1-2.3 2.4-2.3 1.3 0 2.3 1 2.4 2.5.1.3.1.5.1.8zm12 12c-.1 3.7-1.6 6.8-4.3 9.4-.7.7-1.4 1.4-2.1 2-2.2 1.7-3.2 3.9-3.2 6.7 0 1.7-1 2.7-2.4 2.7s-2.4-1.2-2.3-2.8c.1-3.6 1.4-6.7 3.9-9.3 1-1 2-1.9 3-2.8 1.7-1.5 2.6-3.4 2.6-5.7v-.3c.1-2.1 1-3.3 2.6-3.2 1.5.1 2.3 1.3 2.2 3.3z" fill="#fff"/></svg>