<svg xmlns="http://www.w3.org/2000/svg" xmlns:xlink="http://www.w3.org/1999/xlink" x="0" y="0" version="1.1" viewBox="0 0 193 236" xml:space="preserve"><image width="189" height="245" opacity=".3" overflow="visible" transform="translate(3.5 -2.315)" xlink:href="BC463B44A490B05B.png"/><linearGradient id="a" x1="96.223" x2="96.223" y1="1.685" y2="234.315" gradientUnits="userSpaceOnUse"><stop offset="0" stop-color="#39e7e0"/><stop offset=".481" stop-color="#39e7e0"/><stop offset="1" stop-color="#39f"/><stop offset="1" stop-color="#39f"/><stop offset="1" stop-color="#39f"/></linearGradient><path d="M184.1 81.3c0-.2 0-.3-.1-.5 0-.3-.1-.5-.1-.8-3.7-33.3-26.1-61.1-56.4-72.6-.1 0-.1-.1-.2-.1-.3-.1-.5-.2-.8-.3-.2-.1-.5-.2-.7-.3-.1 0-.2-.1-.2-.1-4.4-1.5-8.9-2.7-13.5-3.6-5.1-.9-10.4-1.4-15.7-1.4-4.9 0-9.7.4-14.4 1.2-4.8.8-9.5 2-14.1 3.5-28 10.3-53.1 38.3-58.4 66.8-3.6 19.7-.7 38.5 7 54.6l.1.2c.2.5.5 1 .7 1.5h.1l1.3 2.4s-.1 0-.1.1c.8 1.5 1.7 2.9 2.6 4.4l.1.2.1.1c1.3 2.1 2.7 4.1 4.2 6.1l49.5 66 4.9 6.7c.1.1.1.2.2.3l12.7 16.9c.9 1.2 2.2 1.7 3.5 1.7 1.3 0 2.6-.6 3.5-1.7l65.9-87.9c11.8-15 18.9-34 18.9-54.6-.2-3-.3-5.9-.6-8.8z" fill="url(#a)"/><path d="M135 118.3H58.3c0 2.4-.1 4.9 0 7.3.1 2.3-.9 3.4-3.2 3.3-3-.1-6 0-9 0-2.2 0-3.1-1-3.1-3.1.1-9.9-.1-19.8.1-29.7.1-5.5 3.6-8.4 8.5-10.3 0-11.5.1-22.8-.1-34.2-.1-3.1 1.1-4.3 4-5 27.6-6.5 55.1-6.4 82.7 0 2.8.7 3.8 1.9 3.8 4.8-.2 10.5 0 21.1-.1 31.6 0 1.9.3 3 2.3 3.9 4 1.7 6.2 5 6.2 9.4.1 9.8 0 19.6.1 29.3 0 2.1-.8 3.2-3 3.2h-9.3c-2.2 0-3.1-1.1-3-3.2-.1-2.2-.2-4.6-.2-7.3zM55.9 85.7h4.2v-3.1c.1-5.8 2.9-8.6 8.8-8.6H84c5.8 0 8.6 2.8 8.7 8.8 0 1 .1 2.1.2 3.3h7.8v-4.3c.2-4.6 2.9-7.6 7.4-7.7 5.9-.2 11.8-.2 17.7 0 4.4.1 7.1 3 7.4 7.3.1 1.5 0 2.9 0 4.5h3.9c.1-.5.2-.9.2-1.3 0-10.4 0-20.8.1-31.2 0-1.8-.7-2.5-2.4-2.7-10.1-1.4-20.1-3.3-30.3-4.1-15.7-1.2-31.3.5-46.6 4.2-.9.2-2.2 1.5-2.2 2.3-.1 10.7 0 21.5 0 32.6zm-8.4 15h98.3c1.1-7.6-1.3-10.5-8.6-10.5H56c-7.2.1-9.6 3-8.5 10.5zm6.5 23.8V118c0-3.9.3-4.2 4.3-4.2h77.4c2.6 0 3.8.9 3.6 3.6-.1 2.3 0 4.7 0 7h6.7v-18.9H47.5v19H54zm10.4-38.7h23.8c0-.9.1-1.5.1-2.1.1-4.8-.5-5.3-5.3-5.3H68.2c-2.5 0-3.8 1.2-3.7 3.7-.1 1.1-.1 2.3-.1 3.7zm64.5 0c0-1.6.1-2.9 0-4.3-.1-2-1.2-3.2-3.3-3.2h-17.4c-2.1 0-3.2 1.2-3.2 3.2v4.3h23.9z" fill="#fff"/></svg>