<svg xmlns="http://www.w3.org/2000/svg" xmlns:xlink="http://www.w3.org/1999/xlink" x="0" y="0" version="1.1" viewBox="0 0 193 236" xml:space="preserve"><image width="190" height="246" opacity=".3" overflow="visible" transform="translate(4 -3)" xlink:href="98443ACDC996C205.png"/><linearGradient id="a" x1="97.072" x2="97.072" y1="1" y2="235" gradientUnits="userSpaceOnUse"><stop offset="0" stop-color="#39e7e0"/><stop offset=".481" stop-color="#39e7e0"/><stop offset="1" stop-color="#39f"/><stop offset="1" stop-color="#39f"/><stop offset="1" stop-color="#39f"/></linearGradient><path d="M185.4 81.1c0-.2 0-.3-.1-.5 0-.3-.1-.5-.1-.8-3.8-33.5-26.2-61.4-56.7-73-.1 0-.1-.1-.2-.1-.3-.1-.5-.2-.8-.3-.2-.1-.5-.2-.7-.3-.1 0-.2-.1-.2-.1-4.4-1.5-8.9-2.7-13.6-3.6-5.1-.9-10.4-1.4-15.8-1.4-4.9 0-9.8.4-14.5 1.2-4.9.8-9.6 2-14.2 3.6C40.4 16.2 15.1 44.2 9.8 72.9c-3.6 19.8-.7 38.7 7 54.9l.1.2c.2.5.5 1 .7 1.5h.1l1.3 2.4s-.1 0-.1.1c.8 1.5 1.7 3 2.6 4.4l.1.2.1.1c1.3 2.1 2.7 4.1 4.2 6.1l49.8 66.3 5 6.8c.1.1.1.2.2.3l12.8 17c.9 1.2 2.2 1.7 3.5 1.7 1.3 0 2.6-.6 3.5-1.7l66.3-88.5c11.9-15.1 19-34.2 19-54.9-.1-2.9-.3-5.8-.6-8.7z" fill="url(#a)"/><g fill="#fff"><path d="M62.7 50.8c-.3-2.3-.7-5.6-1.2-8.9-.3-2 .3-3 2.4-3.2 6.2-.6 12.4-1.3 18.6-2.1.9-.1 1.8-.7 2.5-1.4 8.5-8.8 22.5-6.1 27.3 5.2.3.8 1.4 1.6 2.3 1.8 4.4 1.1 8.9 2 13.3 3 3.1.7 3.2.9 2.4 3.9-.2.9-.4 1.8-.6 2.6.2.2.3.5.4.4 3.1-.3 4.5 1.7 6.4 3.8 4.6 5.4 4.4 11.8 4.7 18.1 1 18.4 2 36.8 3 55.3.2 3.8-.2 4.3-4 4.3H53.7c-3.8 0-4.2-.5-4-4.3 1.2-21.3 2.3-42.6 3.6-63.8.1-1.8.9-3.5 1.6-5.2.8-1.7 1.9-3.4 3.1-4.9 1.4-1.5 2.8-2.7 4.7-4.6zm-7.9 77.9h84.5c-1.2-21.1-2.3-42-3.5-63H58.2c-1 20.9-2.2 41.8-3.4 63zm39.5-79c-.5-3.6-.9-7-1.4-10.6-9.2 1-18.2 2-27.5 3 .8 6.1 1.5 12 2.3 17.9 0 .4.6.9 1 .9 2.6.1 5.3 0 8.1 0-.3-1.3-.5-2.2-.7-3.1-.9-3.7-.9-3.8 2.9-4.7 5-1.1 10.1-2.3 15.3-3.4zm9.7-2.6c4.8.1 4.8.1 6.2 5 0 .1.1.2.1.2.8 2.8.8 6.8 2.7 8.1 2.1 1.4 5.8.4 8.8.4.2 0 .4.1.5 0 .5-.4 1.4-.7 1.5-1.2 1-3.7 1.9-7.4 2.9-11.3-7.4-1.6-14.6-3.2-21.8-4.8-.4 1.5-.6 2.5-.9 3.6zm4.6 13.8c-.9-3.6-1.8-6.9-2.7-10.3-9 2-17.6 4-26.2 5.9.6 4.4.6 4.4 4.4 4.4h24.5zm-.5-20.4c-2.8-6.6-12.1-9.3-17.4-4.9h1.6c3.8-.3 3.8-.3 4.4 3.5.5 3.2.8 6.4 1.2 9.6 2.6-.1 2.2-2.1 2.6-3.4 1.8-6.5.8-6 7.2-4.7.1.1.1 0 .4-.1zm25.2 20.3c-1.3-3.9-1.9-4.3-5-3.6-.2 1.1-.5 2.3-.7 3.6h5.7zm-69.3 0c-.2-1.4-.4-2.6-.8-4.4-1.1 1.8-1.9 2.9-2.8 4.4H64z"/><path d="M81.2 82.2c.2-1.8 0-3.7-2.3-5.3-2.2-1.5-1.8-5.1.2-7 2.2-2.1 5.9-2 8 .1 2 2 2.4 5.3.1 6.9-2.6 1.7-2.3 3.9-2.3 6.3 0 6.9 3.4 11.4 9.8 12.8 6.9 1.5 13.7-3.3 14.5-10.2.2-2 .2-4 .1-6.1 0-.7-.7-1.4-1.3-1.9-2.2-1.7-3-3.7-2.1-5.9.9-2.4 2.7-3.6 5.3-3.6 2.5 0 4.6 1.4 5.3 3.5.7 2.2-.1 4.3-2.1 6-.6.5-1.2 1.5-1.2 2.4-.2 2.2.1 4.4-.3 6.6-1.3 8-8.7 13.6-16.8 12.9-8.8-.8-14.8-7.1-14.8-15.6-.1-.3-.1-.8-.1-1.9z"/></g></svg>