<svg xmlns="http://www.w3.org/2000/svg" xmlns:xlink="http://www.w3.org/1999/xlink" x="0" y="0" version="1.1" viewBox="0 0 193 236" xml:space="preserve"><image width="189" height="246" opacity=".3" overflow="visible" transform="translate(4 -3)" xlink:href="AE97F49D036D8F1.png"/><linearGradient id="a" x1="96.5" x2="96.5" y1="1.116" y2="234.334" gradientUnits="userSpaceOnUse"><stop offset="0" stop-color="#39e7e0"/><stop offset=".481" stop-color="#39e7e0"/><stop offset="1" stop-color="#39f"/><stop offset="1" stop-color="#39f"/><stop offset="1" stop-color="#39f"/></linearGradient><path d="M184.6 80.9c0-.2 0-.3-.1-.5 0-.3-.1-.5-.1-.8-3.7-33.4-26.1-61.2-56.5-72.8-.1 0-.1-.1-.2-.1-.3-.1-.5-.2-.8-.3-.2-.1-.5-.2-.7-.3-.1 0-.2-.1-.2-.1-4.4-1.5-8.9-2.7-13.5-3.6-5.1-.9-10.4-1.4-15.8-1.4-4.9 0-9.7.4-14.4 1.2-4.9.8-9.6 2-14.1 3.6C40 16.2 14.8 44.2 9.5 72.8c-3.6 19.7-.7 38.6 7 54.8l.1.2c.2.5.5 1 .7 1.5h.1l1.3 2.4s-.1 0-.1.1c.8 1.5 1.7 3 2.6 4.4l.1.2.1.1c1.3 2.1 2.7 4.1 4.2 6.1l49.6 66.1 5 6.7c.1.1.1.2.2.3l12.7 17c.9 1.2 2.2 1.7 3.5 1.7 1.3 0 2.6-.6 3.5-1.7l66.1-88.2c11.9-15.1 18.9-34.1 18.9-54.7-.1-3-.2-6-.5-8.9z" fill="url(#a)"/><path d="M88.2 66.9c-2.1-8-1.6-13.2-.6-15.2.8-1.5 1.3-3.2 1.3-4.8v-8.7c0-1-.8-1.8-1.8-1.8H71.6c-1 0-1.8.8-1.8 1.8v8.7c0 1.6.4 3.3 1.3 4.8 1.1 2 1.5 7.2-.6 15.2-1.3 4.8-3.5 8.7-5.6 12.5C61.8 84.9 59 90 59 97v36.8c0 3.1 2.6 5.8 5.7 5.8H94c3.2 0 5.7-2.6 5.7-5.8V97c0-7-2.9-12.1-5.9-17.6-2.1-3.7-4.4-7.7-5.6-12.5zm-14.7-27h11.7v7c0 1.1-.3 2.1-.8 3.1-1.9 3.5-1.8 10 .2 17.8.1.2.1.4.2.7-3 1.5-8 1.5-11 0 .1-.2.2-.4.2-.7 2.1-7.8 2.1-14.3.2-17.8-.5-1-.8-2.1-.8-3.1v-7zM72.7 72c2 .9 4.3 1.4 6.7 1.4 2.3 0 4.7-.4 6.7-1.4 1.3 3.4 3 6.4 4.6 9.3.1.3.3.5.4.7-6.8 4.2-16.6 4.2-23.4 0 .1-.2.3-.4.4-.7 1.6-2.9 3.2-5.9 4.6-9.3zm23.4 50H62.5v-14.3c9.5-7.7 24.1-7.7 33.6 0V122zM94 135.8H64.6c-1.1 0-2.1-.9-2.1-2.1v-8.1h33.6v8.1c0 1.2-.9 2.1-2.1 2.1zm2.1-32.6c-9.9-6.5-23.7-6.5-33.6 0V97c0-4.5 1.4-8.1 3.4-11.8 3.9 2.3 8.7 3.5 13.4 3.5 4.7 0 9.5-1.2 13.4-3.5 2 3.7 3.4 7.4 3.4 11.8v6.2zm27.9 3.4c16.3-9 9.3-42.5 9-43.9-.2-.9-.9-1.5-1.8-1.5h-20.9c-.9 0-1.6.6-1.8 1.5-.3 1.4-7.3 35 9 43.9.4.3.9.4 1.4.6v19.6c0 2.2-4.9 12.2-10.3 12.2-1 0-1.8.8-1.8 1.9 0 1 .8 1.8 1.8 1.8H133c1 0 1.8-.8 1.8-1.8s-.8-1.9-1.8-1.9c-5.4 0-10.3-9.9-10.3-12.2v-19.6c.4-.2.9-.3 1.3-.6zm5.7-41.7c.2 1.5.7 3.9 1 7h-19.8c.3-3 .7-5.5.9-7h17.9zm-19.1 10.6H131c.6 10-.4 23.4-8.7 27.9-.9.5-2 .5-2.9 0-8.4-4.6-9.4-17.9-8.8-27.9zm14.8 63.5h-9.1c1.9-1.8 3.4-4.2 4.6-6.4 1 2.1 2.5 4.5 4.5 6.4z" fill="#fff"/></svg>