<?xml version="1.0" encoding="utf-8"?>
<!-- Generator: Adobe Illustrator 22.0.0, SVG Export Plug-In . SVG Version: 6.00 Build 0)  -->
<svg version="1.1" id="Layer_1" xmlns="http://www.w3.org/2000/svg" xmlns:xlink="http://www.w3.org/1999/xlink" x="0px" y="0px"
	 viewBox="0 0 193 236" style="enable-background:new 0 0 193 236;" xml:space="preserve">
<style type="text/css">
	.st0{fill:url(#SVGID_1_);}
	.st1{fill:#FFFFFF;}
</style>
<linearGradient id="SVGID_1_" gradientUnits="userSpaceOnUse" x1="96.5" y1="531.2" x2="96.5" y2="763.5" gradientTransform="matrix(1 0 0 1 0 -530)">
	<stop  offset="0" style="stop-color:#39E7E0"/>
	<stop  offset="0.481" style="stop-color:#39E7E0"/>
	<stop  offset="1" style="stop-color:#3399FF"/>
	<stop  offset="1" style="stop-color:#3399FF"/>
	<stop  offset="1" style="stop-color:#3399FF"/>
</linearGradient>
<path class="st0" d="M184.2,80.7c0-0.2,0-0.3-0.1-0.5c0-0.3-0.1-0.5-0.1-0.8c-3.7-33.3-26-60.9-56.2-72.4c-0.1,0-0.1-0.1-0.2-0.1
	c-0.3-0.1-0.5-0.2-0.8-0.3c-0.2-0.1-0.5-0.2-0.7-0.3c-0.1,0-0.2-0.1-0.2-0.1c-4.4-1.5-8.8-2.7-13.5-3.6c-5.1-0.9-10.3-1.4-15.7-1.4
	c-4.9,0-9.7,0.4-14.4,1.2c-4.8,0.8-9.5,2-14,3.5C40.2,16.4,15.2,44.2,10,72.6c-3.6,19.6-0.7,38.4,7,54.5l0.1,0.2
	c0.2,0.5,0.5,1,0.7,1.5h0.1l1.3,2.4c0,0-0.1,0-0.1,0.1c0.8,1.5,1.7,2.9,2.6,4.4l0.1,0.2l0.1,0.1c1.3,2.1,2.7,4.1,4.2,6.1l49.4,65.8
	l4.9,6.7c0.1,0.1,0.1,0.2,0.2,0.3l12.6,16.9c0.9,1.1,2.2,1.7,3.4,1.7c1.3,0,2.6-0.6,3.4-1.7l65.8-87.7c11.8-15,18.8-33.9,18.8-54.5
	C184.6,86.6,184.4,83.6,184.2,80.7L184.2,80.7z"/>
<g>
	<path class="st1" d="M113.8,89.6c-1.5-0.2-3-0.2-4.5-0.5c-0.9-0.2-1.4,0.1-2,0.6c-14.6,14.5-28.5,29.8-42.2,45.2
		c-3.4,3.9-9,4.3-12.7,0.9c-3.9-3.6-3.8-9.5,0.2-13.1c3.8-3.4,7.7-6.7,11.4-10.2C75.4,102,86.6,91.4,97.9,80.7
		c0.8-0.7,1-1.4,0.8-2.5c-2.8-17.7,11.8-34.1,29.8-33.3c8.2,0.4,14.3,6.6,14.5,14.8C143.4,76.1,130.1,89.7,113.8,89.6z M114,84.9
		c10-0.2,19.1-6.5,22.6-15.9c1.4-3.7,2-7.4,1.3-11.3c-0.9-4.8-5.1-7.9-10.5-8c-15.2-0.1-27,14.5-23.6,29.3c0.4,1.5,0.1,2.5-1,3.6
		c-13.5,13.7-27.6,26.7-41.9,39.5l-5.1,4.5c-1.7,1.6-1.7,4-0.1,5.6c1.6,1.6,4.1,1.5,5.7-0.1c0.4-0.3,0.7-0.7,1-1.1
		c13.9-15.7,28.1-31.2,43.1-46c0.9-0.9,1.9-1.1,3.1-0.9C110.4,84.4,112.2,84.6,114,84.9z"/>
	<path class="st1" d="M90.2,76.5c0.4-0.8,0.9-1.5,1.1-2.2c0.1-0.3,0-0.9-0.2-1.1c-1.1-1.2-2.3-2.4-3.5-3.5L65.2,47.3
		c-0.4-0.4-0.8-0.9-1-1.4c-0.4-1,0-2.2,0.9-2.8c1-0.6,2.2-0.5,3.2,0.4l6.3,6.3c6.7,6.7,13.4,13.5,20.2,20.1c0.6,0.6,0.8,1.1,0.8,2
		c-0.1,2,0.1,4,0.1,6.1c0,0.4-0.2,1-0.4,1.3c-4.8,4.7-9.6,9.5-14.4,14.2c-0.8,0.8-2.1,0.5-3.3-0.7l-5.7-5.7l-23-23
		c-1.6-1.6-1.8-2.9-0.7-4.1c1.1-1.2,2.5-1,4.1,0.7l25.2,25.2c0.8,0.8,1.5,1.1,2.4,0.4c0.4-0.3,0.9-0.5,1.5-0.8
		c-0.3-0.4-0.6-0.7-0.9-1l-26-26l-0.7-0.7c-0.9-1.1-0.9-2.5,0.1-3.4c0.9-0.9,2.4-0.9,3.3,0c1.3,1.2,2.5,2.5,3.8,3.8
		c7.6,7.8,15.5,15.6,23.3,23.5c0.3,0.3,0.5,0.6,0.9,1.1c0.7-0.9,1.3-1.6,1.9-2.4l-0.7-0.7c-8.9-9-17.8-17.9-26.7-26.8l-0.1-0.1
		c-1.4-1.4-1.6-2.8-0.4-3.9c1.1-1.1,2.5-0.9,3.9,0.5l3.8,3.8c7.4,7.4,14.9,14.9,22.3,22.4C89.5,75.8,89.8,76.1,90.2,76.5L90.2,76.5z
		 M98.4,103c1.2-1,2.4-2,3.8-3.3c0.1,0.1,0.3,0.6,0.6,0.9c10.2,11.2,20.4,22.3,30.6,33.5c1.1,1.2,2.5,1.9,4.1,1.5
		c1.5-0.4,2.5-1.3,2.9-2.8c0.4-1.7-0.1-3.1-1.4-4.2c-5.7-5.1-11.5-10.2-17.1-15.3c-5.6-5.1-11-10.3-16.5-15.5
		c-0.3-0.3-0.6-0.5-0.9-0.7c1.2-1.2,2.3-2.4,3.5-3.5c1,0.9,1.9,1.9,3,2.8c10.4,9.5,20.9,19.1,31.3,28.6c2.7,2.5,3.8,5.6,2.8,9.1
		c-1,3.4-3.3,5.6-6.8,6.2c-3.2,0.6-6-0.4-8.3-2.9c-8.1-8.9-16.1-17.8-24.2-26.7C103.4,108.2,100.9,105.7,98.4,103L98.4,103z"/>
</g>
</svg>
