<svg xmlns="http://www.w3.org/2000/svg" xmlns:xlink="http://www.w3.org/1999/xlink" x="0" y="0" version="1.1" viewBox="0 0 193 236" xml:space="preserve"><image width="190" height="247" opacity=".3" overflow="visible" transform="translate(0 -3)" xlink:href="52A45E740D0D5B6B.png"/><linearGradient id="a" x1="93" x2="93" y1="1.519" y2="235.176" gradientUnits="userSpaceOnUse"><stop offset="0" stop-color="#39e7e0"/><stop offset=".481" stop-color="#39e7e0"/><stop offset="1" stop-color="#39f"/><stop offset="1" stop-color="#39f"/><stop offset="1" stop-color="#39f"/></linearGradient><path d="M181.2 81.5c0-.2 0-.3-.1-.5 0-.3-.1-.5-.1-.8-3.8-33.5-26.2-61.3-56.6-72.9-.1 0-.1-.1-.2-.1-.3-.1-.5-.2-.8-.3-.2-.1-.5-.2-.7-.3-.1 0-.2-.1-.2-.1-4.4-1.5-8.9-2.7-13.6-3.6-5.1-.9-10.4-1.4-15.8-1.4-4.9 0-9.8.4-14.5 1.2-4.9.8-9.6 2-14.2 3.6-28 10.4-53.3 38.4-58.5 67-3.6 19.8-.7 38.7 7 54.9l.1.2c.2.5.5 1 .7 1.5h.1l1.3 2.4s-.1 0-.1.1c.8 1.5 1.7 3 2.6 4.4l.1.2.1.1c1.3 2.1 2.7 4.1 4.2 6.1l49.7 66.2 5 6.8c.1.1.1.2.2.3l12.7 17c.9 1.2 2.2 1.7 3.5 1.7 1.3 0 2.6-.6 3.5-1.7l66.2-88.3c11.9-15.1 19-34.1 19-54.8-.1-3.1-.3-6-.6-8.9z" fill="url(#a)"/><g fill="#fff" stroke="#fff" stroke-miterlimit="10" stroke-width=".5"><path d="M137.7 71.5c.5 0 1-.2 1.3-.6l8.3-9.9c.5-.6.5-1.5 0-2.1L139 49c-.3-.4-.8-.6-1.3-.6h-37.2V45c0-4.1-3.3-7.5-7.4-7.5-4.1 0-7.4 3.3-7.4 7.5v3.3H54.9c-.5 0-1 .2-1.3.6l-8.3 9.9c-.5.6-.5 1.5 0 2.1l8.3 9.9c.3.4.8.6 1.3.6h30.6v9.9H48.3c-.5 0-1 .2-1.3.6L38.8 92c-.5.6-.5 1.5 0 2.1L47 104c.3.4.8.6 1.3.6h37.2v38.9H73.1c-.9 0-1.7.7-1.7 1.7 0 .9.8 1.6 1.7 1.6h39.8c.9 0 1.6-.7 1.6-1.6 0-.9-.7-1.7-1.6-1.7h-12.4v-38.9h30.6c.5 0 1-.2 1.3-.6l8.3-9.9c.5-.6.5-1.5 0-2.1l-8.3-9.9c-.3-.4-.8-.6-1.3-.6h-30.6v-9.9h37.2zm-.8-19.8 6.9 8.3-6.9 8.3h-36.5V51.7h36.5zM55.7 68.2l-6.9-8.3 6.9-8.3h29.9v16.6H55.7zm-6.6 33.1L42.2 93l6.9-8.3h36.5v16.6H49.1zm39.8 42.2V45c0-2.3 1.8-4.1 4.1-4.1s4.2 1.8 4.2 4.1v98.5h-8.3zm41.4-58.7 6.9 8.3-6.9 8.3h-29.9V84.8h29.9z"/><path d="M107.8 61.6h6.6c.9 0 1.7-.7 1.7-1.7 0-.9-.7-1.6-1.7-1.6h-6.6c-.9 0-1.6.7-1.6 1.6-.1 1 .7 1.7 1.6 1.7zm13.2 0h13.4c.9 0 1.7-.7 1.7-1.7 0-.9-.7-1.6-1.7-1.6H121c-.9 0-1.6.7-1.6 1.6 0 1 .7 1.7 1.6 1.7zm-44.5-3.3H61.2c-.9 0-1.6.7-1.6 1.6 0 .9.7 1.7 1.6 1.7h15.3c.9 0 1.7-.7 1.7-1.7 0-.9-.8-1.6-1.7-1.6zm-14 33.1h-9.9c-.9 0-1.7.7-1.7 1.6 0 .9.7 1.7 1.7 1.7h9.9c.9 0 1.6-.7 1.6-1.7 0-.8-.7-1.6-1.6-1.6zm16.5 0h-9.9c-.9 0-1.7.7-1.7 1.6 0 .9.7 1.7 1.7 1.7H79c.9 0 1.7-.7 1.7-1.7 0-.8-.8-1.6-1.7-1.6z"/></g></svg>