<?xml version="1.0" encoding="utf-8"?>
<!-- Generator: Adobe Illustrator 25.1.0, SVG Export Plug-In . SVG Version: 6.00 Build 0)  -->
<svg version="1.1" id="Layer_1" xmlns="http://www.w3.org/2000/svg" xmlns:xlink="http://www.w3.org/1999/xlink" x="0px" y="0px"
	 viewBox="0 0 468.77 190.18" style="enable-background:new 0 0 468.77 190.18;" xml:space="preserve">
<style type="text/css">
	.st0{fill:#606161;}
	.st1{fill:url(#SVGID_1_);}
	.st2{fill:url(#SVGID_2_);}
	.st3{fill:url(#SVGID_3_);}
	.st4{fill:url(#SVGID_4_);}
	.st5{fill:url(#SVGID_5_);}
	.st6{fill:url(#SVGID_6_);}
	.st7{fill:url(#SVGID_7_);}
	.st8{fill:url(#SVGID_8_);}
	.st9{fill:url(#SVGID_9_);}
	.st10{fill:url(#SVGID_10_);}
	.st11{fill:url(#SVGID_11_);}
	.st12{fill:url(#SVGID_12_);}
	.st13{fill:url(#SVGID_13_);}
	.st14{fill:url(#SVGID_14_);}
	.st15{fill:url(#SVGID_15_);}
	.st16{fill:url(#SVGID_16_);}
	.st17{fill:url(#SVGID_17_);}
	.st18{fill:url(#SVGID_18_);}
	.st19{fill:url(#SVGID_19_);}
	.st20{fill:#FFFFFF;}
	.st21{fill:#C1C0C0;}
	.st22{fill:url(#SVGID_20_);}
	.st23{fill:url(#SVGID_21_);}
	.st24{fill:url(#SVGID_22_);}
	.st25{fill:url(#SVGID_23_);}
	.st26{fill:url(#SVGID_24_);}
	.st27{fill:url(#SVGID_25_);}
	.st28{fill:url(#SVGID_26_);}
	.st29{fill:url(#SVGID_27_);}
	.st30{fill:url(#SVGID_28_);}
	.st31{fill:url(#SVGID_29_);}
	.st32{fill:url(#SVGID_30_);}
	.st33{fill:url(#SVGID_31_);}
	.st34{fill:url(#SVGID_32_);}
	.st35{fill:url(#SVGID_33_);}
	.st36{fill:url(#SVGID_34_);}
	.st37{fill:url(#SVGID_35_);}
	.st38{fill:url(#SVGID_36_);}
	.st39{fill:url(#SVGID_37_);}
	.st40{fill:url(#SVGID_38_);}
	.st41{fill:url(#SVGID_39_);}
	.st42{fill:url(#SVGID_40_);}
	.st43{fill:url(#SVGID_41_);}
	.st44{fill:#39E7E0;}
	.st45{fill:url(#SVGID_42_);}
	.st46{fill:url(#SVGID_43_);}
	.st47{fill:url(#SVGID_44_);}
	.st48{fill:url(#SVGID_45_);}
	.st49{fill:url(#SVGID_46_);}
	.st50{fill:url(#SVGID_47_);}
	.st51{fill:url(#SVGID_48_);}
	.st52{fill:url(#SVGID_49_);}
	.st53{fill:url(#SVGID_50_);}
	.st54{fill:url(#SVGID_51_);}
	.st55{fill:url(#SVGID_52_);}
	.st56{fill:url(#SVGID_53_);}
	.st57{fill:url(#SVGID_54_);}
	.st58{fill:url(#SVGID_55_);}
	.st59{fill:url(#SVGID_56_);}
	.st60{fill:url(#SVGID_57_);}
	.st61{fill:url(#SVGID_58_);}
	.st62{fill:url(#SVGID_59_);}
	.st63{fill:url(#SVGID_60_);}
	.st64{fill:url(#SVGID_61_);}
	.st65{fill:url(#SVGID_62_);}
</style>
<g>
	<g>
		<g>
			<linearGradient id="SVGID_1_" gradientUnits="userSpaceOnUse" x1="76.9672" y1="37.3892" x2="90.3786" y2="37.3892">
				<stop  offset="0" style="stop-color:#42EEEB"/>
				<stop  offset="1" style="stop-color:#2BD9CF"/>
			</linearGradient>
			<path class="st1" d="M90.37,49.87V32.23c0.01-0.14,0.01-0.28,0.01-0.42c0-0.39-0.03-0.77-0.09-1.15l-0.03-0.15
				c-0.75-3.3-3.47-5.6-6.63-5.6c-2.65,0-4.99,1.62-6.12,4.09c-0.34,0.86-0.53,1.81-0.53,2.81h-0.01v18.06
				c2.19-0.45,4.45-0.69,6.71-0.69C85.93,49.19,88.18,49.42,90.37,49.87z"/>
			<linearGradient id="SVGID_2_" gradientUnits="userSpaceOnUse" x1="67.2927" y1="56.1338" x2="100.0565" y2="56.1338">
				<stop  offset="0" style="stop-color:#42EEEB"/>
				<stop  offset="1" style="stop-color:#2BD9CF"/>
			</linearGradient>
			<path class="st2" d="M94.26,53.3c0,0-1.11-0.43-1.68-0.6c-0.37-0.11-0.73-0.22-1.1-0.31c-0.32-0.08-0.63-0.16-0.95-0.23
				c-0.05-0.01-0.1-0.02-0.15-0.03c-2.15-0.48-4.39-0.73-6.69-0.73l0,0c0,0,0,0,0,0c-2.3,0-4.55,0.25-6.71,0.74
				c-0.04,0.01-0.09,0.02-0.13,0.03c-0.32,0.07-0.65,0.15-0.97,0.24c-0.37,0.1-0.74,0.2-1.1,0.31c-0.57,0.17-1.67,0.6-1.67,0.6
				c-3.17,1.16-5.49,4.07-5.8,7.56c1.76-0.62,3.56-1.14,5.4-1.56c3.53-0.8,7.2-1.22,10.97-1.22c0,0,0,0,0,0c0,0,0,0,0,0
				c3.77,0,7.44,0.42,10.97,1.22c1.85,0.42,3.66,0.94,5.43,1.57C99.75,57.38,97.43,54.46,94.26,53.3z"/>
			<linearGradient id="SVGID_3_" gradientUnits="userSpaceOnUse" x1="-6.0286" y1="129.9667" x2="156.7079" y2="129.9667">
				<stop  offset="0" style="stop-color:#0095EB"/>
				<stop  offset="0.0537" style="stop-color:#059CE8"/>
				<stop  offset="0.2855" style="stop-color:#16B8DF"/>
				<stop  offset="0.52" style="stop-color:#23CBD8"/>
				<stop  offset="0.757" style="stop-color:#2BD7D3"/>
				<stop  offset="1" style="stop-color:#2DDBD2"/>
			</linearGradient>
			<path class="st3" d="M46.44,95.4l-1.09,0.63c-1.88,1.09-3.87,1.95-5.94,2.58c-3.06,0.93-6.14,2.27-9.15,3.98
				c-0.79,0.45-2.2,1.3-3.34,1.98c-0.51,0.31-0.97,0.58-1.31,0.78c-0.26,0.15-0.47,0.28-0.65,0.37c1.56,2.85,3.31,5.58,5.25,8.16h0
				l38,50.66l48.66-64.62l0.01-0.02l0.01-0.02c0.34-0.44,0.68-0.88,1.01-1.33c-9.13,7.91-21.04,12.69-34.07,12.69
				C69.17,111.23,55.91,105.16,46.44,95.4z"/>
			<linearGradient id="SVGID_4_" gradientUnits="userSpaceOnUse" x1="70.5578" y1="95.7388" x2="150.3148" y2="95.7388">
				<stop  offset="0" style="stop-color:#77CDD5"/>
				<stop  offset="1" style="stop-color:#34EFE6"/>
			</linearGradient>
			<path class="st4" d="M149.99,67.46c-0.01-0.13-0.03-0.25-0.04-0.38c-0.02-0.2-0.04-0.4-0.06-0.6
				c-2.83-25.19-19.68-46.14-42.57-54.84c-0.05-0.02-0.11-0.04-0.16-0.06c-0.19-0.07-0.39-0.14-0.58-0.22
				c-0.18-0.07-0.37-0.13-0.56-0.2c-0.06-0.02-0.12-0.04-0.17-0.06c-3.29-1.16-6.7-2.06-10.2-2.7
				c23.08,5.34,40.29,26.03,40.29,50.74c0,12.79-4.61,24.49-12.26,33.56c-0.25,0.52-0.51,1.03-0.77,1.54
				c0.02,0.01,0.04,0.02,0.06,0.03c-1.27,2.43-2.76,4.72-4.44,6.85l-47.05,62.49c-1.19,1.58-1.2,3.77-0.01,5.35l9.57,12.78
				c0.65,0.87,1.63,1.31,2.61,1.31c0.98,0,1.96-0.44,2.61-1.31l49.81-66.43c8.93-11.34,14.26-25.66,14.26-41.22
				C150.31,71.87,150.2,69.65,149.99,67.46z"/>
			<linearGradient id="SVGID_5_" gradientUnits="userSpaceOnUse" x1="16.947" y1="56.0738" x2="72.8534" y2="56.0738">
				<stop  offset="0" style="stop-color:#77CDD5"/>
				<stop  offset="1" style="stop-color:#34EFE6"/>
			</linearGradient>
			<path class="st5" d="M72.85,8.23c-3.66,0.6-7.21,1.5-10.64,2.68c-21.17,7.81-40.14,28.9-44.1,50.43
				c-2.83,15.4-0.35,30.12,5.91,42.58c0.06,0,3.73-2.24,5.24-3.1c3.03-1.73,6.23-3.15,9.57-4.16c1.94-0.59,3.78-1.39,5.51-2.39
				c-0.48-0.92-0.94-1.86-1.36-2.81c-7.03-8.88-11.23-20.1-11.23-32.3C31.76,34.16,49.37,13.28,72.85,8.23z"/>
			<linearGradient id="SVGID_6_" gradientUnits="userSpaceOnUse" x1="67.5713" y1="50.0271" x2="259.7221" y2="50.0271">
				<stop  offset="0" style="stop-color:#0095EB"/>
				<stop  offset="0.0537" style="stop-color:#059CE8"/>
				<stop  offset="0.2855" style="stop-color:#16B8DF"/>
				<stop  offset="0.52" style="stop-color:#23CBD8"/>
				<stop  offset="0.757" style="stop-color:#2BD7D3"/>
				<stop  offset="1" style="stop-color:#2DDBD2"/>
			</linearGradient>
			<path class="st6" d="M95.63,8.41c-3.86-0.7-7.84-1.07-11.9-1.07c-3.7,0-7.34,0.31-10.88,0.89c-23.49,5.04-41.1,25.92-41.1,50.92
				c0,12.2,4.2,23.42,11.23,32.3c-3.52-8-4.75-17.23-2.86-26.86c3.15-16,18.6-31.34,34.63-34.51v-0.03h0.15
				c0.04-0.01,0.08-0.02,0.12-0.02c0.94-4.1,4.45-7.16,8.61-7.16c4.18,0,7.68,3.07,8.62,7.19c17.32,3.42,31.02,16.91,34.74,34.12
				c0,0-0.01,0-0.01,0c0.33,1.52,0.59,3.07,0.76,4.65c0.01,0.07,0.01,0.13,0.02,0.2c0.03,0.25,0.05,0.5,0.07,0.75
				c0.02,0.25,0.04,0.51,0.06,0.76c0,0.03,0,0.06,0.01,0.08c0.06,0.98,0.1,1.97,0.1,2.97c0,6.85-1.55,13.33-4.32,19.12
				c7.65-9.06,12.26-20.77,12.26-33.56C135.92,34.44,118.71,13.75,95.63,8.41z"/>
		</g>
		<linearGradient id="SVGID_7_" gradientUnits="userSpaceOnUse" x1="46.4449" y1="85.8041" x2="120.2528" y2="85.8041">
			<stop  offset="0" style="stop-color:#42EEEB"/>
			<stop  offset="1" style="stop-color:#2BD9CF"/>
		</linearGradient>
		<path class="st7" d="M120.25,94.89c-6.37-4.37-10.84-11.24-12.1-19l-0.4-2.19c-0.36-4.69-3.45-8.77-7.87-10.39l-2.09-0.76
			l0.01-0.01c-1.2-0.38-2.42-0.71-3.64-0.98c-3.42-0.78-6.94-1.17-10.48-1.17c-3.54,0-7.06,0.39-10.48,1.17
			c-1.22,0.28-2.44,0.61-3.64,0.98l0.01,0.01l-2.09,0.76c-4.42,1.62-7.51,5.7-7.87,10.39l-0.4,2.19
			C57.93,83.67,53.42,90.57,47,94.94l0.05,0.1l-0.61,0.35c9.47,9.76,22.72,15.83,37.39,15.83c13.03,0,24.94-4.78,34.07-12.69
			c0.82-1.13,1.58-2.3,2.28-3.5l-0.02-0.01L120.25,94.89z M78.9,73.14l3.15-3.15c0.87-0.87,2.28-0.87,3.15,0l3.15,3.15
			c0.87,0.87,0.87,2.28,0,3.15l-3.15,3.15c-0.87,0.87-2.28,0.87-3.15,0l-3.15-3.15C78.03,75.42,78.03,74.01,78.9,73.14z M72.6,88.9
			l-3.15-3.15c-0.87-0.87-0.87-2.28,0-3.15l3.15-3.15c0.87-0.87,2.28-0.87,3.15,0l3.15,3.15c0.87,0.87,0.87,2.28,0,3.15l-3.15,3.15
			C74.88,89.77,73.47,89.77,72.6,88.9z M88.36,95.2l-3.15,3.15c-0.87,0.87-2.28,0.87-3.15,0L78.9,95.2c-0.87-0.87-0.87-2.28,0-3.15
			l3.15-3.15c0.87-0.87,2.28-0.87,3.15,0l3.15,3.15C89.23,92.92,89.23,94.33,88.36,95.2z M97.82,85.75l-3.15,3.15
			c-0.87,0.87-2.28,0.87-3.15,0l-3.15-3.15c-0.87-0.87-0.87-2.28,0-3.15l3.15-3.15c0.87-0.87,2.28-0.87,3.15,0l3.15,3.15
			C98.69,83.46,98.69,84.87,97.82,85.75z"/>
	</g>
	<g>
		<linearGradient id="SVGID_8_" gradientUnits="userSpaceOnUse" x1="176.8744" y1="90.0974" x2="227.6481" y2="90.0974">
			<stop  offset="0" style="stop-color:#42EEEB"/>
			<stop  offset="1" style="stop-color:#2BD9CF"/>
		</linearGradient>
		<path class="st8" d="M216.8,63.33L216.8,63.33c-3.45-1.58-7.28-2.38-11.4-2.38c-5.49,0-10.43,1.26-14.71,3.74
			c-4.28,2.49-7.69,5.99-10.14,10.4c-2.44,4.39-3.68,9.46-3.68,15.06c0,5.48,1.26,10.47,3.73,14.83c2.48,4.37,5.95,7.88,10.32,10.43
			c4.36,2.55,9.4,3.85,14.95,3.85c7.54,0,13.92-2.39,19.03-7.14c1.35-1.35,1.96-2.99,1.76-4.75c-0.19-1.67-1.06-3.16-2.57-4.4
			c-1.26-1.06-2.79-1.55-4.43-1.4c-1.51,0.13-2.97,0.76-4.33,1.87c-1.23,1.01-2.6,1.75-4.07,2.23c-1.52,0.49-3.33,0.73-5.39,0.73
			c-3.06,0-5.76-0.7-8.03-2.09c-2.31-1.42-4.07-3.29-5.38-5.72c-1.3-2.42-1.96-5.26-1.96-8.42c0-3.36,0.64-6.3,1.92-8.73
			c1.27-2.42,2.97-4.25,5.21-5.6c2.21-1.33,4.82-2.01,7.75-2.01c4.21,0,7.62,1.45,10.48,4.48c1.19,1.2,2.56,1.96,4.06,2.27
			c1.65,0.34,3.26,0.01,4.63-0.98c1.58-1.14,2.57-2.52,2.94-4.12c0.29-1.22,0.27-3.09-1.42-5.02
			C223.37,67.3,220.24,64.91,216.8,63.33z"/>
		<linearGradient id="SVGID_9_" gradientUnits="userSpaceOnUse" x1="233.1646" y1="90.0974" x2="291.0845" y2="90.0974">
			<stop  offset="0" style="stop-color:#42EEEB"/>
			<stop  offset="1" style="stop-color:#2BD9CF"/>
		</linearGradient>
		<path class="st9" d="M276.89,64.79L276.89,64.79c-4.34-2.55-9.29-3.85-14.72-3.85c-5.42,0-10.39,1.29-14.76,3.85
			c-4.36,2.55-7.87,6.07-10.41,10.46c-2.55,4.4-3.84,9.41-3.84,14.9c0,5.47,1.18,10.44,3.52,14.79c2.34,4.37,5.59,7.88,9.65,10.44
			c4.09,2.57,8.76,3.88,13.89,3.88c5.13,0,9.8-1.31,13.89-3.88c1.06-0.67,2.07-1.41,3.03-2.21c0.23,1.46,0.87,2.73,1.92,3.78
			c1.33,1.34,3.02,2.01,5.01,2.01c1.99,0,3.67-0.68,5.01-2.01c1.34-1.34,2.01-3.02,2.01-5.01V90.15c0-5.49-1.29-10.5-3.84-14.9
			C284.7,70.86,281.22,67.34,276.89,64.79z M262.17,73.81c2.97,0,5.53,0.69,7.83,2.09c2.32,1.42,4.09,3.31,5.43,5.78
			c1.33,2.46,2,5.3,2,8.46c0,3.1-0.67,5.91-2,8.36c-1.34,2.47-3.11,4.36-5.43,5.78c-2.3,1.41-4.86,2.09-7.83,2.09
			c-2.91,0-5.46-0.69-7.79-2.1c-2.32-1.4-4.18-3.35-5.53-5.79c-1.35-2.45-2.04-5.26-2.04-8.35c0-3.15,0.69-5.99,2.04-8.44
			c1.35-2.44,3.21-4.39,5.53-5.79C256.72,74.5,259.27,73.81,262.17,73.81z"/>
		<linearGradient id="SVGID_10_" gradientUnits="userSpaceOnUse" x1="299.4225" y1="89.9019" x2="353.6277" y2="89.9019">
			<stop  offset="0" style="stop-color:#42EEEB"/>
			<stop  offset="1" style="stop-color:#2BD9CF"/>
		</linearGradient>
		<path class="st10" d="M341.08,63.97c-3.84-2.08-8.22-3.13-13.04-3.13c-4.62,0-8.87,1.04-12.61,3.08
			c-0.86,0.47-1.69,0.99-2.49,1.56c-0.33-0.82-0.81-1.56-1.45-2.2c-1.3-1.3-3.01-1.96-5.05-1.96c-1.97,0-3.65,0.65-4.98,1.94
			c-1.35,1.31-2.04,3.02-2.04,5.08v43.59c0,1.99,0.68,3.67,2.01,5.01c1.33,1.34,3.02,2.01,5.01,2.01c2.06,0,3.77-0.69,5.08-2.04
			c1.29-1.33,1.94-3.01,1.94-4.98V84.38c0-2,0.52-3.71,1.59-5.23c1.11-1.59,2.59-2.83,4.52-3.79c1.92-0.96,4.11-1.45,6.52-1.45
			c2.67,0,5.04,0.51,7.06,1.5c1.97,0.97,3.49,2.42,4.66,4.43c1.18,2.02,1.77,4.73,1.77,8.06v24.04c0,1.99,0.68,3.67,2.01,5.01
			c1.33,1.34,3.02,2.01,5.01,2.01c1.99,0,3.67-0.68,5.01-2.01c1.34-1.34,2.01-3.02,2.01-5.01V87.9c0-5.73-1.12-10.67-3.33-14.67
			C348.06,69.19,344.96,66.07,341.08,63.97z"/>
		<linearGradient id="SVGID_11_" gradientUnits="userSpaceOnUse" x1="360.8915" y1="78.8584" x2="418.8107" y2="78.8584">
			<stop  offset="0" style="stop-color:#42EEEB"/>
			<stop  offset="1" style="stop-color:#2BD9CF"/>
		</linearGradient>
		<path class="st11" d="M411.79,38.46c-1.97,0-3.65,0.65-4.98,1.94c-1.35,1.31-2.04,3.02-2.04,5.08v21.45
			c-1.6-1.32-3.36-2.45-5.28-3.39c-3.52-1.73-7.41-2.6-11.55-2.6c-5.12,0-9.8,1.31-13.89,3.88c-4.07,2.56-7.31,6.07-9.65,10.44
			c-2.33,4.35-3.52,9.32-3.52,14.79c0,5.49,1.29,10.5,3.84,14.9c2.55,4.4,6.05,7.91,10.41,10.46c4.36,2.55,9.33,3.85,14.76,3.85
			c5.43,0,10.38-1.3,14.71-3.85c4.32-2.55,7.81-6.06,10.35-10.46c2.55-4.4,3.84-9.41,3.84-14.9V45.48c0-2.05-0.66-3.75-1.97-5.06
			C415.54,39.12,413.84,38.46,411.79,38.46z M389.9,106.38c-2.91,0-5.46-0.69-7.79-2.1c-2.32-1.4-4.17-3.36-5.52-5.83
			c-1.36-2.48-2.05-5.31-2.05-8.4c0-3.15,0.69-5.97,2.04-8.39c1.35-2.41,3.21-4.34,5.53-5.75c2.34-1.41,4.89-2.1,7.79-2.1
			c2.97,0,5.53,0.69,7.83,2.09c2.32,1.42,4.1,3.3,5.44,5.74c1.33,2.42,2,5.25,2,8.4c0,3.1-0.67,5.93-2.01,8.42
			c-1.32,2.47-3.14,4.42-5.43,5.82C395.43,105.7,392.87,106.38,389.9,106.38z"/>
		<linearGradient id="SVGID_12_" gradientUnits="userSpaceOnUse" x1="430.8636" y1="90.0974" x2="444.9033" y2="90.0974">
			<stop  offset="0" style="stop-color:#42EEEB"/>
			<stop  offset="1" style="stop-color:#2BD9CF"/>
		</linearGradient>
		<path class="st12" d="M437.88,61.33c-1.97,0-3.65,0.65-4.98,1.94c-1.35,1.31-2.04,3.02-2.04,5.08v43.49
			c0,1.99,0.68,3.67,2.01,5.01c1.33,1.34,3.02,2.01,5.01,2.01c2.06,0,3.77-0.69,5.08-2.04c1.29-1.33,1.94-3.01,1.94-4.98V68.35
			c0-2.05-0.66-3.75-1.97-5.06C441.63,61.99,439.93,61.33,437.88,61.33z"/>
	</g>
</g>
<linearGradient id="SVGID_13_" gradientUnits="userSpaceOnUse" x1="428.8425" y1="46.9723" x2="446.0908" y2="46.9723">
	<stop  offset="0" style="stop-color:#42EEEB"/>
	<stop  offset="1" style="stop-color:#2BD9CF"/>
</linearGradient>
<path class="st13" d="M445.04,49.5l-5.05,5.05c-1.4,1.4-3.66,1.4-5.05,0l-5.05-5.05c-1.4-1.4-1.4-3.66,0-5.05l5.05-5.05
	c1.4-1.4,3.66-1.4,5.05,0l5.05,5.05C446.44,45.84,446.44,48.1,445.04,49.5z"/>
</svg>
