<?xml version="1.0" encoding="utf-8"?>
<!-- Generator: Adobe Illustrator 25.1.0, SVG Export Plug-In . SVG Version: 6.00 Build 0)  -->
<svg version="1.1" id="Layer_1" xmlns="http://www.w3.org/2000/svg" xmlns:xlink="http://www.w3.org/1999/xlink" x="0px" y="0px"
	 viewBox="0 0 281.31 396.5" style="enable-background:new 0 0 281.31 396.5;" xml:space="preserve">
<style type="text/css">
	.st0{fill:#606161;}
	.st1{fill:url(#SVGID_1_);}
	.st2{fill:url(#SVGID_2_);}
	.st3{fill:url(#SVGID_3_);}
	.st4{fill:url(#SVGID_4_);}
	.st5{fill:url(#SVGID_5_);}
	.st6{fill:url(#SVGID_6_);}
	.st7{fill:url(#SVGID_7_);}
	.st8{fill:url(#SVGID_8_);}
	.st9{fill:url(#SVGID_9_);}
	.st10{fill:url(#SVGID_10_);}
	.st11{fill:url(#SVGID_11_);}
	.st12{fill:url(#SVGID_12_);}
	.st13{fill:url(#SVGID_13_);}
	.st14{fill:url(#SVGID_14_);}
	.st15{fill:url(#SVGID_15_);}
	.st16{fill:url(#SVGID_16_);}
	.st17{fill:url(#SVGID_17_);}
	.st18{fill:url(#SVGID_18_);}
	.st19{fill:url(#SVGID_19_);}
	.st20{fill:#FFFFFF;}
	.st21{fill:#C1C0C0;}
	.st22{fill:url(#SVGID_20_);}
	.st23{fill:url(#SVGID_21_);}
	.st24{fill:url(#SVGID_22_);}
	.st25{fill:url(#SVGID_23_);}
	.st26{fill:url(#SVGID_24_);}
	.st27{fill:url(#SVGID_25_);}
	.st28{fill:url(#SVGID_26_);}
	.st29{fill:url(#SVGID_27_);}
	.st30{fill:url(#SVGID_28_);}
	.st31{fill:url(#SVGID_29_);}
	.st32{fill:url(#SVGID_30_);}
	.st33{fill:url(#SVGID_31_);}
	.st34{fill:url(#SVGID_32_);}
	.st35{fill:url(#SVGID_33_);}
	.st36{fill:url(#SVGID_34_);}
	.st37{fill:url(#SVGID_35_);}
	.st38{fill:url(#SVGID_36_);}
	.st39{fill:url(#SVGID_37_);}
	.st40{fill:url(#SVGID_38_);}
	.st41{fill:url(#SVGID_39_);}
	.st42{fill:url(#SVGID_40_);}
	.st43{fill:url(#SVGID_41_);}
	.st44{fill:#39E7E0;}
	.st45{fill:url(#SVGID_42_);}
	.st46{fill:url(#SVGID_43_);}
	.st47{fill:url(#SVGID_44_);}
	.st48{fill:url(#SVGID_45_);}
	.st49{fill:url(#SVGID_46_);}
	.st50{fill:url(#SVGID_47_);}
	.st51{fill:url(#SVGID_48_);}
	.st52{fill:url(#SVGID_49_);}
	.st53{fill:url(#SVGID_50_);}
	.st54{fill:url(#SVGID_51_);}
	.st55{fill:url(#SVGID_52_);}
	.st56{fill:url(#SVGID_53_);}
	.st57{fill:url(#SVGID_54_);}
	.st58{fill:url(#SVGID_55_);}
	.st59{fill:url(#SVGID_56_);}
	.st60{fill:url(#SVGID_57_);}
	.st61{fill:url(#SVGID_58_);}
	.st62{fill:url(#SVGID_59_);}
	.st63{fill:url(#SVGID_60_);}
	.st64{fill:url(#SVGID_61_);}
	.st65{fill:url(#SVGID_62_);}
</style>
<g>
	<g>
		<g>
			<linearGradient id="SVGID_1_" gradientUnits="userSpaceOnUse" x1="129.9993" y1="62.2404" x2="151.4942" y2="62.2404">
				<stop  offset="0" style="stop-color:#42EEEB"/>
				<stop  offset="1" style="stop-color:#2BD9CF"/>
			</linearGradient>
			<path class="st1" d="M151.47,82.24V53.97c0.01-0.22,0.02-0.45,0.02-0.68c0-0.63-0.05-1.24-0.14-1.84l-0.06-0.24
				c-1.2-5.29-5.57-8.98-10.63-8.98c-4.24,0-8,2.6-9.81,6.56c-0.54,1.38-0.84,2.91-0.84,4.5H130v28.95c3.52-0.73,7.13-1.1,10.75-1.1
				C144.36,81.15,147.97,81.52,151.47,82.24z"/>
			<linearGradient id="SVGID_2_" gradientUnits="userSpaceOnUse" x1="114.4936" y1="92.283" x2="167.0055" y2="92.283">
				<stop  offset="0" style="stop-color:#42EEEB"/>
				<stop  offset="1" style="stop-color:#2BD9CF"/>
			</linearGradient>
			<path class="st2" d="M157.71,87.75c0,0-1.78-0.69-2.7-0.97c-0.59-0.18-1.17-0.35-1.77-0.5c-0.51-0.13-1.02-0.26-1.53-0.37
				c-0.08-0.02-0.16-0.03-0.24-0.05c-3.45-0.77-7.04-1.17-10.73-1.17l0,0c0,0,0,0,0,0c-3.69,0-7.29,0.41-10.75,1.18
				c-0.07,0.02-0.14,0.03-0.21,0.05c-0.52,0.12-1.04,0.24-1.55,0.38c-0.59,0.16-1.18,0.32-1.77,0.5c-0.91,0.27-2.68,0.96-2.68,0.96
				c-5.08,1.86-8.8,6.53-9.29,12.12c2.82-0.99,5.71-1.83,8.66-2.5c5.65-1.28,11.53-1.96,17.58-1.96c0,0,0,0,0,0c0,0,0,0,0,0
				c6.04,0,11.92,0.68,17.58,1.96c2.97,0.67,5.87,1.51,8.7,2.51C166.52,94.28,162.79,89.61,157.71,87.75z"/>
			<linearGradient id="SVGID_3_" gradientUnits="userSpaceOnUse" x1="-57.1491" y1="210.6179" x2="439.1628" y2="210.6179">
				<stop  offset="0" style="stop-color:#0095EB"/>
				<stop  offset="0.0537" style="stop-color:#059CE8"/>
				<stop  offset="0.2855" style="stop-color:#16B8DF"/>
				<stop  offset="0.52" style="stop-color:#23CBD8"/>
				<stop  offset="0.757" style="stop-color:#2BD7D3"/>
				<stop  offset="1" style="stop-color:#2DDBD2"/>
			</linearGradient>
			<path class="st3" d="M81.08,155.21l-1.74,1.01c-3.01,1.74-6.21,3.13-9.51,4.13c-4.91,1.48-9.84,3.63-14.67,6.38
				c-1.26,0.72-3.53,2.08-5.36,3.17c-0.82,0.49-1.56,0.94-2.1,1.26c-0.42,0.25-0.75,0.44-1.04,0.59c2.49,4.57,5.31,8.94,8.41,13.07
				h0l60.91,81.2l77.99-103.57l0.02-0.03l0.02-0.03c0.55-0.7,1.09-1.41,1.61-2.14c-14.64,12.67-33.73,20.34-54.61,20.34
				C117.49,180.59,96.25,170.86,81.08,155.21z"/>
			<linearGradient id="SVGID_4_" gradientUnits="userSpaceOnUse" x1="-138.6563" y1="155.7595" x2="207.5776" y2="155.7595">
				<stop  offset="0" style="stop-color:#77CDD5"/>
				<stop  offset="1" style="stop-color:#34EFE6"/>
			</linearGradient>
			<path class="st4" d="M247.03,110.43c-0.02-0.2-0.04-0.41-0.06-0.61c-0.03-0.32-0.07-0.64-0.1-0.95
				c-4.53-40.37-31.54-73.94-68.23-87.89c-0.09-0.03-0.18-0.07-0.26-0.1c-0.31-0.12-0.62-0.23-0.93-0.35
				c-0.3-0.11-0.59-0.21-0.89-0.32c-0.09-0.03-0.19-0.07-0.28-0.1c-5.27-1.86-10.74-3.31-16.35-4.32
				c37,8.56,64.58,41.72,64.58,81.33c0,20.49-7.39,39.26-19.64,53.79c-0.4,0.83-0.81,1.66-1.24,2.47c0.03,0.02,0.06,0.03,0.09,0.05
				c-2.04,3.89-4.42,7.56-7.12,10.98l-75.41,100.15c-1.91,2.54-1.92,6.04-0.01,8.58l15.35,20.49c1.05,1.4,2.62,2.1,4.19,2.1
				c1.57,0,3.14-0.7,4.19-2.09l79.82-106.47c14.32-18.18,22.86-41.12,22.86-66.06C247.56,117.5,247.38,113.94,247.03,110.43z"/>
			<linearGradient id="SVGID_5_" gradientUnits="userSpaceOnUse" x1="-344.0699" y1="92.1868" x2="175.7412" y2="92.1868">
				<stop  offset="0" style="stop-color:#77CDD5"/>
				<stop  offset="0.0251" style="stop-color:#6FD1D7"/>
				<stop  offset="0.1108" style="stop-color:#59DCDD"/>
				<stop  offset="0.2119" style="stop-color:#48E5E1"/>
				<stop  offset="0.337" style="stop-color:#3DEBE4"/>
				<stop  offset="0.5126" style="stop-color:#36EEE6"/>
				<stop  offset="1" style="stop-color:#34EFE6"/>
			</linearGradient>
			<path class="st5" d="M123.41,15.51c-5.86,0.97-11.56,2.41-17.06,4.29c-33.92,12.52-64.34,46.32-70.68,80.82
				c-4.54,24.69-0.55,48.28,9.47,68.24c0.09,0,5.97-3.58,8.41-4.97c4.86-2.77,9.99-5.05,15.34-6.67c3.11-0.94,6.07-2.23,8.82-3.83
				c-0.78-1.47-1.5-2.97-2.17-4.5c-11.26-14.23-17.99-32.21-17.99-51.77C57.54,57.06,85.76,23.6,123.41,15.51z"/>
			<linearGradient id="SVGID_6_" gradientUnits="userSpaceOnUse" x1="114.9401" y1="82.4955" x2="422.9078" y2="82.4955">
				<stop  offset="0" style="stop-color:#0095EB"/>
				<stop  offset="0.0537" style="stop-color:#059CE8"/>
				<stop  offset="0.2855" style="stop-color:#16B8DF"/>
				<stop  offset="0.52" style="stop-color:#23CBD8"/>
				<stop  offset="0.757" style="stop-color:#2BD7D3"/>
				<stop  offset="1" style="stop-color:#2DDBD2"/>
			</linearGradient>
			<path class="st6" d="M159.91,15.79c-6.19-1.12-12.56-1.71-19.07-1.71c-5.94,0-11.76,0.49-17.44,1.43
				C85.76,23.6,57.54,57.06,57.54,97.12c0,19.56,6.73,37.54,17.99,51.77c-5.64-12.82-7.62-27.61-4.58-43.06
				c5.04-25.65,29.81-50.23,55.5-55.31v-0.05h0.24c0.06-0.01,0.12-0.02,0.19-0.04c1.51-6.58,7.13-11.47,13.8-11.47
				c6.69,0,12.31,4.92,13.81,11.52c27.76,5.48,49.71,27.1,55.67,54.69c-0.01,0-0.01,0-0.02,0c0.53,2.44,0.94,4.93,1.22,7.45
				c0.01,0.1,0.02,0.21,0.03,0.31c0.04,0.4,0.08,0.8,0.11,1.21c0.03,0.41,0.07,0.81,0.1,1.22c0,0.05,0.01,0.09,0.01,0.14
				c0.1,1.57,0.16,3.16,0.16,4.76c0,10.97-2.49,21.36-6.92,30.64c12.25-14.53,19.64-33.29,19.64-53.79
				C224.49,57.52,196.91,24.36,159.91,15.79z"/>
		</g>
		<linearGradient id="SVGID_7_" gradientUnits="userSpaceOnUse" x1="81.0799" y1="139.8369" x2="199.3748" y2="139.8369">
			<stop  offset="0" style="stop-color:#42EEEB"/>
			<stop  offset="1" style="stop-color:#2BD9CF"/>
		</linearGradient>
		<path class="st7" d="M199.37,154.39c-10.21-7.01-17.38-18.02-19.4-30.45l-0.64-3.52c-0.57-7.52-5.52-14.06-12.61-16.65l-3.34-1.22
			l0.01-0.02c-1.93-0.6-3.88-1.13-5.84-1.57c-5.47-1.24-11.12-1.87-16.8-1.87c-5.67,0-11.32,0.63-16.79,1.87
			c-1.96,0.44-3.91,0.97-5.84,1.57l0.01,0.02l-3.35,1.23c-7.09,2.6-12.04,9.13-12.61,16.65l-0.64,3.52
			c-2.03,12.47-9.26,23.54-19.54,30.54l0.09,0.16l-0.98,0.57c15.17,15.65,36.42,25.38,59.93,25.38c20.88,0,39.97-7.67,54.61-20.34
			c1.31-1.81,2.53-3.68,3.66-5.6l-0.03-0.02L199.37,154.39z M133.1,119.53l5.05-5.05c1.4-1.4,3.66-1.4,5.05,0l5.05,5.05
			c1.4,1.4,1.4,3.66,0,5.05l-5.05,5.05c-1.4,1.4-3.66,1.4-5.05,0l-5.05-5.05C131.71,123.19,131.71,120.93,133.1,119.53z M123,144.79
			l-5.05-5.05c-1.4-1.4-1.4-3.66,0-5.05l5.05-5.05c1.4-1.4,3.66-1.4,5.05,0l5.05,5.05c1.4,1.39,1.4,3.66,0,5.05l-5.05,5.05
			C126.65,146.19,124.39,146.19,123,144.79z M148.26,154.9l-5.05,5.05c-1.4,1.4-3.66,1.4-5.05,0l-5.05-5.05
			c-1.4-1.4-1.4-3.66,0-5.05l5.05-5.05c1.4-1.4,3.66-1.4,5.05,0l5.05,5.05C149.65,151.24,149.65,153.5,148.26,154.9z M163.41,139.74
			l-5.05,5.05c-1.4,1.39-3.66,1.39-5.05,0l-5.05-5.05c-1.4-1.4-1.4-3.66,0-5.05l5.05-5.05c1.4-1.4,3.66-1.4,5.05,0l5.05,5.05
			C164.81,136.09,164.81,138.35,163.41,139.74z"/>
	</g>
</g>
<g>
	<g>
		<linearGradient id="SVGID_8_" gradientUnits="userSpaceOnUse" x1="16.4666" y1="347.7816" x2="63.2708" y2="347.7816">
			<stop  offset="0" style="stop-color:#42EEEB"/>
			<stop  offset="1" style="stop-color:#2BD9CF"/>
		</linearGradient>
		<path class="st8" d="M53.27,323.1L53.27,323.1c-3.18-1.46-6.71-2.2-10.51-2.2c-5.06,0-9.62,1.16-13.56,3.45
			c-3.94,2.29-7.09,5.52-9.34,9.58c-2.25,4.05-3.39,8.72-3.39,13.88c0,5.05,1.16,9.66,3.44,13.67c2.29,4.03,5.49,7.26,9.51,9.61
			c4.02,2.35,8.66,3.54,13.78,3.54c6.95,0,12.83-2.2,17.54-6.59c1.24-1.24,1.8-2.76,1.62-4.38c-0.18-1.54-0.98-2.91-2.37-4.06
			c-1.16-0.98-2.57-1.43-4.08-1.29c-1.39,0.12-2.74,0.7-4,1.72c-1.13,0.93-2.4,1.62-3.75,2.05c-1.4,0.45-3.07,0.68-4.97,0.68
			c-2.82,0-5.31-0.65-7.4-1.93c-2.13-1.31-3.75-3.03-4.96-5.28c-1.2-2.23-1.8-4.85-1.8-7.76c0-3.1,0.59-5.81,1.77-8.05
			c1.17-2.23,2.74-3.92,4.8-5.16c2.04-1.23,4.44-1.85,7.14-1.85c3.88,0,7.03,1.34,9.66,4.13c1.1,1.1,2.36,1.81,3.74,2.09
			c1.52,0.32,3,0.01,4.27-0.9c1.45-1.05,2.36-2.33,2.71-3.8c0.26-1.13,0.25-2.85-1.31-4.63C59.32,326.77,56.44,324.56,53.27,323.1z"
			/>
		<linearGradient id="SVGID_9_" gradientUnits="userSpaceOnUse" x1="68.356" y1="347.7816" x2="121.7477" y2="347.7816">
			<stop  offset="0" style="stop-color:#42EEEB"/>
			<stop  offset="1" style="stop-color:#2BD9CF"/>
		</linearGradient>
		<path class="st9" d="M108.66,324.45L108.66,324.45c-4-2.35-8.56-3.55-13.56-3.55c-5,0-9.58,1.19-13.6,3.54
			c-4.02,2.35-7.25,5.59-9.6,9.64c-2.35,4.05-3.54,8.67-3.54,13.73c0,5.04,1.09,9.63,3.24,13.63c2.16,4.03,5.15,7.26,8.9,9.62
			c3.77,2.37,8.08,3.58,12.8,3.58c4.72,0,9.03-1.2,12.8-3.58c0.98-0.62,1.91-1.3,2.79-2.04c0.21,1.35,0.8,2.52,1.77,3.49
			c1.23,1.23,2.78,1.86,4.62,1.86c1.83,0,3.38-0.62,4.62-1.86c1.23-1.23,1.86-2.78,1.86-4.62v-20.09c0-5.06-1.19-9.68-3.54-13.73
			C115.86,330.05,112.65,326.8,108.66,324.45z M95.1,332.77c2.73,0,5.1,0.63,7.22,1.93c2.14,1.31,3.77,3.05,5.01,5.33
			c1.22,2.26,1.85,4.89,1.85,7.8c0,2.85-0.62,5.45-1.85,7.71c-1.23,2.28-2.87,4.02-5,5.33c-2.12,1.3-4.48,1.93-7.22,1.93
			c-2.68,0-5.03-0.63-7.18-1.94c-2.14-1.29-3.85-3.09-5.09-5.34c-1.25-2.26-1.88-4.84-1.88-7.69c0-2.91,0.63-5.53,1.88-7.78
			c1.24-2.25,2.96-4.04,5.09-5.34C90.07,333.4,92.42,332.77,95.1,332.77z"/>
		<linearGradient id="SVGID_10_" gradientUnits="userSpaceOnUse" x1="129.4339" y1="347.6013" x2="179.4012" y2="347.6013">
			<stop  offset="0" style="stop-color:#42EEEB"/>
			<stop  offset="1" style="stop-color:#2BD9CF"/>
		</linearGradient>
		<path class="st10" d="M167.83,323.7c-3.54-1.91-7.58-2.88-12.02-2.88c-4.26,0-8.17,0.96-11.62,2.84
			c-0.79,0.43-1.56,0.92-2.29,1.44c-0.3-0.76-0.75-1.43-1.34-2.02c-1.2-1.2-2.77-1.81-4.66-1.81c-1.82,0-3.36,0.6-4.59,1.79
			c-1.25,1.2-1.88,2.78-1.88,4.68v40.18c0,1.83,0.62,3.39,1.85,4.61c1.23,1.23,2.78,1.86,4.62,1.86c1.9,0,3.48-0.63,4.68-1.88
			c1.19-1.23,1.79-2.77,1.79-4.59v-25.41c0-1.85,0.48-3.42,1.46-4.82c1.03-1.46,2.39-2.61,4.17-3.5c1.77-0.88,3.79-1.33,6.01-1.33
			c2.46,0,4.65,0.47,6.51,1.38c1.81,0.89,3.22,2.23,4.3,4.08c1.09,1.86,1.64,4.36,1.64,7.43v22.16c0,1.83,0.62,3.39,1.85,4.61
			c1.23,1.23,2.78,1.86,4.62,1.86c1.83,0,3.38-0.62,4.62-1.86c1.23-1.23,1.86-2.78,1.86-4.62v-22.16c0-5.28-1.03-9.83-3.07-13.52
			C174.27,328.51,171.41,325.64,167.83,323.7z"/>
		<linearGradient id="SVGID_11_" gradientUnits="userSpaceOnUse" x1="186.0971" y1="337.4213" x2="239.4882" y2="337.4213">
			<stop  offset="0" style="stop-color:#42EEEB"/>
			<stop  offset="1" style="stop-color:#2BD9CF"/>
		</linearGradient>
		<path class="st11" d="M233.02,300.19c-1.82,0-3.36,0.6-4.59,1.79c-1.25,1.2-1.88,2.78-1.88,4.68v19.77
			c-1.47-1.21-3.1-2.26-4.87-3.13c-3.25-1.59-6.83-2.4-10.64-2.4c-4.72,0-9.03,1.2-12.8,3.58c-3.75,2.36-6.74,5.6-8.9,9.62
			c-2.15,4.01-3.24,8.6-3.24,13.63c0,5.06,1.19,9.68,3.54,13.73c2.35,4.05,5.58,7.3,9.6,9.64c4.02,2.35,8.6,3.54,13.6,3.54
			c5,0,9.57-1.19,13.56-3.55c3.99-2.35,7.2-5.59,9.55-9.64c2.35-4.06,3.54-8.68,3.54-13.73v-41.08c0-1.89-0.61-3.46-1.81-4.66
			C236.47,300.79,234.9,300.19,233.02,300.19z M212.84,362.8c-2.68,0-5.03-0.63-7.18-1.94c-2.13-1.29-3.85-3.1-5.09-5.38
			c-1.25-2.29-1.89-4.89-1.89-7.75c0-2.9,0.63-5.51,1.88-7.73c1.24-2.22,2.96-4,5.1-5.3c2.16-1.3,4.51-1.94,7.18-1.94
			c2.73,0,5.1,0.63,7.22,1.93c2.14,1.31,3.78,3.04,5.01,5.29c1.22,2.23,1.84,4.84,1.84,7.75c0,2.86-0.62,5.47-1.85,7.76
			c-1.22,2.27-2.9,4.08-5,5.37C217.94,362.16,215.57,362.8,212.84,362.8z"/>
		<linearGradient id="SVGID_12_" gradientUnits="userSpaceOnUse" x1="250.5987" y1="347.7816" x2="263.5408" y2="347.7816">
			<stop  offset="0" style="stop-color:#42EEEB"/>
			<stop  offset="1" style="stop-color:#2BD9CF"/>
		</linearGradient>
		<path class="st12" d="M257.07,321.27c-1.82,0-3.36,0.6-4.59,1.79c-1.25,1.2-1.88,2.78-1.88,4.68v40.09c0,1.83,0.62,3.39,1.85,4.61
			c1.23,1.23,2.78,1.86,4.62,1.86c1.9,0,3.48-0.63,4.68-1.88c1.19-1.23,1.79-2.77,1.79-4.59v-40.09c0-1.89-0.61-3.45-1.81-4.66
			C260.53,321.87,258.96,321.27,257.07,321.27z"/>
	</g>
	<linearGradient id="SVGID_13_" gradientUnits="userSpaceOnUse" x1="248.0766" y1="308.7335" x2="265.3248" y2="308.7335">
		<stop  offset="0" style="stop-color:#42EEEB"/>
		<stop  offset="1" style="stop-color:#2BD9CF"/>
	</linearGradient>
	<path class="st13" d="M264.28,311.26l-5.05,5.05c-1.4,1.4-3.66,1.4-5.05,0l-5.05-5.05c-1.4-1.4-1.4-3.66,0-5.05l5.05-5.05
		c1.4-1.4,3.66-1.4,5.05,0l5.05,5.05C265.67,307.6,265.67,309.86,264.28,311.26z"/>
</g>
</svg>
