<svg id="Layer_1" data-name="Layer 1" xmlns="http://www.w3.org/2000/svg" viewBox="0 0 449.8 183.25"><defs><style>.cls-1{fill:#fff;}.cls-2{fill:#c1c0c0;}</style></defs><path class="cls-1" d="M82,46.53V28.89c0-.14,0-.28,0-.42A7.15,7.15,0,0,0,82,27.32l0-.16a6.93,6.93,0,0,0-6.63-5.6,6.78,6.78,0,0,0-6.12,4.1,7.63,7.63,0,0,0-.53,2.81h0V46.53a32.87,32.87,0,0,1,13.4,0Z"/><path class="cls-1" d="M85.92,50s-1.11-.43-1.69-.6L83.13,49l-.95-.23-.15,0a30.84,30.84,0,0,0-6.7-.73h0a30.84,30.84,0,0,0-6.7.73l-.14,0-1,.24-1.11.31c-.57.17-1.67.6-1.67.6A8.9,8.9,0,0,0,59,57.52,46.62,46.62,0,0,1,64.36,56a48.83,48.83,0,0,1,11-1.23h0a49,49,0,0,1,11,1.23,47.56,47.56,0,0,1,5.43,1.56A8.91,8.91,0,0,0,85.92,50Z"/><path class="cls-2" d="M38.11,92.05,37,92.68a28.19,28.19,0,0,1-5.94,2.58,44.71,44.71,0,0,0-9.15,4c-.79.45-2.2,1.3-3.34,2l-1.31.78c-.26.16-.47.28-.65.37a66.29,66.29,0,0,0,5.25,8.16h0l38,50.66,48.66-64.62v0l0,0c.34-.43.67-.88,1-1.33a52.06,52.06,0,0,1-71.46-3.15Z"/><path class="cls-1" d="M141.65,64.12c0-.13,0-.26,0-.39s0-.39-.07-.59A66.74,66.74,0,0,0,99,8.3l-.17-.06L98.22,8l-.55-.2-.18-.06a65.63,65.63,0,0,0-10.2-2.69,52.1,52.1,0,0,1,28,84.3c-.25.52-.51,1-.78,1.54l.06,0a43.89,43.89,0,0,1-4.44,6.85L63.12,160.28a4.46,4.46,0,0,0,0,5.36l9.57,12.78a3.28,3.28,0,0,0,5.23,0L127.71,112A66.37,66.37,0,0,0,142,70.77C142,68.52,141.86,66.3,141.65,64.12Z"/><path class="cls-1" d="M64.51,4.89A65.24,65.24,0,0,0,53.87,7.57C32.7,15.38,13.73,36.47,9.77,58a67.17,67.17,0,0,0,5.91,42.58c.06,0,3.72-2.24,5.24-3.1a46.45,46.45,0,0,1,9.57-4.16A26.54,26.54,0,0,0,36,90.92c-.49-.92-.94-1.86-1.36-2.81A52.1,52.1,0,0,1,64.51,4.89Z"/><path class="cls-2" d="M87.29,5.07A66.67,66.67,0,0,0,75.39,4a67.4,67.4,0,0,0-10.88.89A52.1,52.1,0,0,0,34.64,88.11a44.83,44.83,0,0,1-2.86-26.87c3.15-16,18.6-31.34,34.63-34.51v0h.15l.12,0a8.76,8.76,0,0,1,17.23,0,44.43,44.43,0,0,1,34.73,34.12h0a44.19,44.19,0,0,1,.76,4.65c0,.06,0,.13,0,.19,0,.25,0,.5.07.75l.06.77v.08c.06,1,.1,2,.1,3a44.35,44.35,0,0,1-4.32,19.12,52.1,52.1,0,0,0-28-84.3Z"/><path class="cls-1" d="M111.91,91.54a28.77,28.77,0,0,1-12.1-19l-.4-2.19A12.08,12.08,0,0,0,91.54,60l-2.09-.76v0c-1.21-.37-2.42-.7-3.65-1a47.48,47.48,0,0,0-21,0c-1.23.28-2.45.61-3.65,1v0L59.13,60a12,12,0,0,0-7.87,10.39l-.4,2.19A28.78,28.78,0,0,1,38.66,91.6l.06.1-.61.35a52.06,52.06,0,0,0,71.46,3.15c.82-1.13,1.58-2.3,2.29-3.5h0ZM70.56,69.79l3.16-3.15a2.23,2.23,0,0,1,3.15,0L80,69.79A2.24,2.24,0,0,1,80,73L76.87,76.1a2.23,2.23,0,0,1-3.15,0L70.56,73A2.24,2.24,0,0,1,70.56,69.79Zm-6.3,15.76L61.11,82.4a2.23,2.23,0,0,1,0-3.15l3.15-3.15a2.23,2.23,0,0,1,3.15,0l3.15,3.15a2.23,2.23,0,0,1,0,3.15l-3.15,3.15A2.23,2.23,0,0,1,64.26,85.55ZM80,91.86,76.87,95a2.23,2.23,0,0,1-3.15,0l-3.16-3.15a2.23,2.23,0,0,1,0-3.15l3.16-3.16a2.23,2.23,0,0,1,3.15,0L80,88.71A2.23,2.23,0,0,1,80,91.86Zm9.46-9.46-3.16,3.15a2.23,2.23,0,0,1-3.15,0L80,82.4a2.23,2.23,0,0,1,0-3.15l3.15-3.15a2.23,2.23,0,0,1,3.15,0l3.16,3.15A2.23,2.23,0,0,1,89.48,82.4Z"/><path class="cls-1" d="M208.46,60h0a27.16,27.16,0,0,0-11.4-2.38,28.88,28.88,0,0,0-14.71,3.74,27,27,0,0,0-10.14,10.4,30.62,30.62,0,0,0-3.67,15.06,29.63,29.63,0,0,0,3.73,14.84,27.89,27.89,0,0,0,10.32,10.42,29.15,29.15,0,0,0,14.95,3.85,26.92,26.92,0,0,0,19-7.15,5.65,5.65,0,0,0,1.76-4.75,6.62,6.62,0,0,0-2.57-4.4,5.89,5.89,0,0,0-4.42-1.4,8,8,0,0,0-4.34,1.87,12.11,12.11,0,0,1-4.07,2.23,18,18,0,0,1-5.39.73,15.1,15.1,0,0,1-8-2.09,14.62,14.62,0,0,1-5.38-5.73,17.62,17.62,0,0,1-2-8.42,18.71,18.71,0,0,1,1.92-8.73,13.82,13.82,0,0,1,5.21-5.6,14.81,14.81,0,0,1,7.75-2A13.69,13.69,0,0,1,207.54,75a7.86,7.86,0,0,0,4.05,2.26,5.77,5.77,0,0,0,4.64-1,7.13,7.13,0,0,0,2.94-4.12,5.48,5.48,0,0,0-1.42-5A27.54,27.54,0,0,0,208.46,60Z"/><path class="cls-1" d="M268.55,61.45h0A29.07,29.07,0,0,0,228.67,71.9a29.29,29.29,0,0,0-3.84,14.9,31,31,0,0,0,3.51,14.79A27.5,27.5,0,0,0,238,112a26.8,26.8,0,0,0,27.78,0,28.63,28.63,0,0,0,3-2.21,6.65,6.65,0,0,0,1.92,3.78,7,7,0,0,0,12-5V86.8a29.32,29.32,0,0,0-3.85-14.9A28.58,28.58,0,0,0,268.55,61.45Zm-14.72,9a14.54,14.54,0,0,1,7.83,2.09,14.82,14.82,0,0,1,5.43,5.78,17.57,17.57,0,0,1,2,8.46,17.38,17.38,0,0,1-2,8.37,14.82,14.82,0,0,1-5.43,5.78,15.6,15.6,0,0,1-15.62,0,15.22,15.22,0,0,1-5.52-5.79,17,17,0,0,1-2.05-8.35,17.18,17.18,0,0,1,2.05-8.44A15.22,15.22,0,0,1,246,72.57,14.59,14.59,0,0,1,253.83,70.47Z"/><path class="cls-1" d="M332.74,60.63a27.06,27.06,0,0,0-13-3.13,26,26,0,0,0-12.61,3.08,23.57,23.57,0,0,0-2.48,1.57,6.44,6.44,0,0,0-1.45-2.2,7.44,7.44,0,0,0-10,0,6.8,6.8,0,0,0-2,5.08V108.6a7.11,7.11,0,0,0,12.1,5,6.91,6.91,0,0,0,1.94-5V81a8.79,8.79,0,0,1,1.59-5.24A11.75,11.75,0,0,1,311.23,72a14.43,14.43,0,0,1,6.52-1.45,15.94,15.94,0,0,1,7.06,1.5,10.8,10.8,0,0,1,4.66,4.43,16,16,0,0,1,1.78,8.07v24a7,7,0,1,0,14,0v-24A30.07,30.07,0,0,0,342,69.89,23,23,0,0,0,332.74,60.63Z"/><path class="cls-1" d="M403.45,35.12a6.91,6.91,0,0,0-5,1.94,6.8,6.8,0,0,0-2,5.08V63.59a26.44,26.44,0,0,0-5.28-3.39,25.94,25.94,0,0,0-11.54-2.6,25.59,25.59,0,0,0-13.89,3.88,27.47,27.47,0,0,0-9.65,10.43,30.88,30.88,0,0,0-3.52,14.8,29.28,29.28,0,0,0,3.84,14.89,28.46,28.46,0,0,0,10.41,10.46,29,29,0,0,0,39.83-10.46,29.28,29.28,0,0,0,3.84-14.89V42.14a6.72,6.72,0,0,0-7-7ZM381.56,103a14.63,14.63,0,0,1-7.79-2.1,15.19,15.19,0,0,1-5.52-5.83,17.27,17.27,0,0,1-2.05-8.4,17,17,0,0,1,2-8.39,15.35,15.35,0,0,1,5.53-5.75,15.6,15.6,0,0,1,15.62,0,15,15,0,0,1,5.44,5.74,17.36,17.36,0,0,1,2,8.41,17.62,17.62,0,0,1-2,8.41,15,15,0,0,1-5.43,5.83A14.54,14.54,0,0,1,381.56,103Z"/><path class="cls-1" d="M429.54,58a6.92,6.92,0,0,0-5,1.94,6.8,6.8,0,0,0-2,5.08V108.5a7.11,7.11,0,0,0,12.1,5,6.91,6.91,0,0,0,1.94-5V65a6.72,6.72,0,0,0-7-7Z"/><rect class="cls-1" x="421.98" y="32.48" width="14.29" height="14.29" rx="3.57" transform="translate(97.67 315.05) rotate(-45)"/></svg>